#Comment line ignore any data following # character 
#Hierarchical Translation and Rotation (.htr) file 
[Header]	
#Header keywords are followed by a single value 
FileType HTR		#Single word string
DataType HTRS		#Translation followed by rotation and scale data
FileVersion 1		#integer
NumSegments 84		#integer
NumFrames 2		#integer
DataFrameRate 30		#integer, data frame rate in this file
EulerRotationOrder ZYX
CalibrationUnits mm
RotationUnits Degrees
GlobalAxisofGravity Y
BoneLengthAxis Y
ScaleFactor 1.00
[SegmentNames&Hierarchy]
#CHILD	PARENT
MASTER GLOBAL
root MASTER
chest root
L_mid_tent01 root
R_mid_tent01 root
spine01 root
Bip01_Neck chest
L_humerus chest
R_humerus chest
weapon_bone chest
Bip01_Head Bip01_Neck
eye_left_bone Bip01_Head
eye_right_bone Bip01_Head
L_forearm L_humerus
L_front_hand L_forearm
L_weapon_bone L_forearm
L_front_hand01_01 L_front_hand
L_front_hand02_01 L_front_hand
L_front_hand03_01 L_front_hand
L_front_hand01_02 L_front_hand01_01
L_front_hand02_02 L_front_hand02_01
L_front_hand03_02 L_front_hand03_01
R_forearm R_humerus
R_front_hand R_forearm
R_weapon_bone R_forearm
R_front_hand01_01 R_front_hand
R_front_hand02_01 R_front_hand
R_front_hand03_01 R_front_hand
R_front_hand01_02 R_front_hand01_01
R_front_hand02_02 R_front_hand02_01
R_front_hand03_02 R_front_hand03_01
null_rope01_connect L_mid_tent01
Rope1_Seg01 null_rope01_connect
Rope1_Seg02 Rope1_Seg01
Rope1_Seg03 Rope1_Seg02
Rope1_Seg04 Rope1_Seg03
Rope1_Seg05 Rope1_Seg04
Rope1_Seg06 Rope1_Seg05
Rope1_Seg07 Rope1_Seg06
Rope1_Seg09 Rope1_Seg07
L_mid_hand01 Rope1_Seg09
L_mid_hand02 Rope1_Seg09
L_mid_hand03 Rope1_Seg09
null_rope02_connect R_mid_tent01
Rope2_Seg01 null_rope02_connect
Rope2_Seg02 Rope2_Seg01
Rope2_Seg03 Rope2_Seg02
Rope2_Seg04 Rope2_Seg03
Rope2_Seg05 Rope2_Seg04
Rope2_Seg06 Rope2_Seg05
Rope2_Seg07 Rope2_Seg06
Rope2_Seg09 Rope2_Seg07
R_mid_hand01 Rope2_Seg09
R_mid_hand02 Rope2_Seg09
R_mid_hand03 Rope2_Seg09
spine02 spine01
spine03 spine02
pelvis spine03
null_rope03_connect pelvis
null_rope04_connect pelvis
Rope3_Seg01 null_rope03_connect
Rope3_Seg02 Rope3_Seg01
Rope3_Seg03 Rope3_Seg02
Rope3_Seg04 Rope3_Seg03
Rope3_Seg05 Rope3_Seg04
Rope3_Seg06 Rope3_Seg05
Rope3_Seg07 Rope3_Seg06
Rope3_Seg08 Rope3_Seg07
Rope3_Seg09 Rope3_Seg08
R_rear_hand01 Rope3_Seg09
R_rear_hand02 Rope3_Seg09
R_rear_hand03 Rope3_Seg09
Rope4_Seg01 null_rope04_connect
Rope4_Seg02 Rope4_Seg01
Rope4_Seg03 Rope4_Seg02
Rope4_Seg04 Rope4_Seg03
Rope4_Seg05 Rope4_Seg04
Rope4_Seg06 Rope4_Seg05
Rope4_Seg07 Rope4_Seg06
Rope4_Seg08 Rope4_Seg07
Rope4_Seg09 Rope4_Seg08
L_rear_hand01 Rope4_Seg09
L_rear_hand02 Rope4_Seg09
L_rear_hand03 Rope4_Seg09
[BasePosition]
#SegmentName Tx, Ty, Tz, Rx, Ry, Rz, BoneLength
MASTER 0.000000 0.000000 0.000000 -90.000000 0.000000 0.000000 10.000000 
root 0.000000 0.000000 0.000000 0.000000 0.000000 0.000000 10.000000 
chest 0.000000 0.000000 0.000000 0.000000 0.000000 0.000000 10.000000 
L_mid_tent01 0.000000 0.000000 0.000000 0.000000 0.000000 0.000000 10.000000 
R_mid_tent01 0.000000 0.000000 0.000000 0.000000 0.000000 0.000000 10.000000 
spine01 0.000000 0.000000 0.000000 0.000000 0.000000 0.000000 10.000000 
Bip01_Neck 0.000000 0.000000 0.000000 0.000000 0.000000 0.000000 10.000000 
L_humerus 0.000000 0.000000 0.000000 0.000000 0.000000 0.000000 10.000000 
R_humerus 0.000000 0.000000 0.000000 0.000000 0.000000 0.000000 10.000000 
weapon_bone 0.000000 0.000000 0.000000 0.000000 0.000000 0.000000 10.000000 
Bip01_Head 0.000000 0.000000 0.000000 0.000000 0.000000 0.000000 10.000000 
eye_left_bone 0.000000 0.000000 0.000000 0.000000 0.000000 0.000000 10.000000 
eye_right_bone 0.000000 0.000000 0.000000 0.000000 0.000000 0.000000 10.000000 
L_forearm 0.000000 0.000000 0.000000 0.000000 0.000000 0.000000 10.000000 
L_front_hand 0.000000 0.000000 0.000000 0.000000 0.000000 0.000000 10.000000 
L_weapon_bone 0.000000 0.000000 0.000000 0.000000 0.000000 0.000000 10.000000 
L_front_hand01_01 0.000000 0.000000 0.000000 0.000000 0.000000 0.000000 10.000000 
L_front_hand02_01 0.000000 0.000000 0.000000 0.000000 0.000000 0.000000 10.000000 
L_front_hand03_01 0.000000 0.000000 0.000000 0.000000 0.000000 0.000000 10.000000 
L_front_hand01_02 0.000000 0.000000 0.000000 0.000000 0.000000 0.000000 10.000000 
L_front_hand02_02 0.000000 0.000000 0.000000 0.000000 0.000000 0.000000 10.000000 
L_front_hand03_02 0.000000 0.000000 0.000000 0.000000 0.000000 0.000000 10.000000 
R_forearm 0.000000 0.000000 0.000000 0.000000 0.000000 0.000000 10.000000 
R_front_hand 0.000000 0.000000 0.000000 0.000000 0.000000 0.000000 10.000000 
R_weapon_bone 0.000000 0.000000 0.000000 0.000000 0.000000 0.000000 10.000000 
R_front_hand01_01 0.000000 0.000000 0.000000 0.000000 0.000000 0.000000 10.000000 
R_front_hand02_01 0.000000 0.000000 0.000000 0.000000 0.000000 0.000000 10.000000 
R_front_hand03_01 0.000000 0.000000 0.000000 0.000000 0.000000 0.000000 10.000000 
R_front_hand01_02 0.000000 0.000000 0.000000 0.000000 0.000000 0.000000 10.000000 
R_front_hand02_02 0.000000 0.000000 0.000000 0.000000 0.000000 0.000000 10.000000 
R_front_hand03_02 0.000000 0.000000 0.000000 0.000000 0.000000 0.000000 10.000000 
null_rope01_connect 0.000000 0.000000 0.000000 0.000000 0.000000 0.000000 10.000000 
Rope1_Seg01 0.000000 0.000000 0.000000 0.000000 0.000000 0.000000 10.000000 
Rope1_Seg02 0.000000 0.000000 0.000000 0.000000 0.000000 0.000000 10.000000 
Rope1_Seg03 0.000000 0.000000 0.000000 0.000000 0.000000 0.000000 10.000000 
Rope1_Seg04 0.000000 0.000000 0.000000 0.000000 0.000000 0.000000 10.000000 
Rope1_Seg05 0.000000 0.000000 0.000000 0.000000 0.000000 0.000000 10.000000 
Rope1_Seg06 0.000000 0.000000 0.000000 0.000000 0.000000 0.000000 10.000000 
Rope1_Seg07 0.000000 0.000000 0.000000 0.000000 0.000000 0.000000 10.000000 
Rope1_Seg09 0.000000 0.000000 0.000000 0.000000 0.000000 0.000000 10.000000 
L_mid_hand01 0.000000 0.000000 0.000000 0.000000 0.000000 0.000000 10.000000 
L_mid_hand02 0.000000 0.000000 0.000000 0.000000 0.000000 0.000000 10.000000 
L_mid_hand03 0.000000 0.000000 0.000000 0.000000 0.000000 0.000000 10.000000 
null_rope02_connect 0.000000 0.000000 0.000000 0.000000 0.000000 0.000000 10.000000 
Rope2_Seg01 0.000000 0.000000 0.000000 0.000000 0.000000 0.000000 10.000000 
Rope2_Seg02 0.000000 0.000000 0.000000 0.000000 0.000000 0.000000 10.000000 
Rope2_Seg03 0.000000 0.000000 0.000000 0.000000 0.000000 0.000000 10.000000 
Rope2_Seg04 0.000000 0.000000 0.000000 0.000000 0.000000 0.000000 10.000000 
Rope2_Seg05 0.000000 0.000000 0.000000 0.000000 0.000000 0.000000 10.000000 
Rope2_Seg06 0.000000 0.000000 0.000000 0.000000 0.000000 0.000000 10.000000 
Rope2_Seg07 0.000000 0.000000 0.000000 0.000000 0.000000 0.000000 10.000000 
Rope2_Seg09 0.000000 0.000000 0.000000 0.000000 0.000000 0.000000 10.000000 
R_mid_hand01 0.000000 0.000000 0.000000 0.000000 0.000000 0.000000 10.000000 
R_mid_hand02 0.000000 0.000000 0.000000 0.000000 0.000000 0.000000 10.000000 
R_mid_hand03 0.000000 0.000000 0.000000 0.000000 0.000000 0.000000 10.000000 
spine02 0.000000 0.000000 0.000000 0.000000 0.000000 0.000000 10.000000 
spine03 0.000000 0.000000 0.000000 0.000000 0.000000 0.000000 10.000000 
pelvis 0.000000 0.000000 0.000000 0.000000 0.000000 0.000000 10.000000 
null_rope03_connect 0.000000 0.000000 0.000000 0.000000 0.000000 0.000000 10.000000 
null_rope04_connect 0.000000 0.000000 0.000000 0.000000 0.000000 0.000000 10.000000 
Rope3_Seg01 0.000000 0.000000 0.000000 0.000000 0.000000 0.000000 10.000000 
Rope3_Seg02 0.000000 0.000000 0.000000 0.000000 0.000000 0.000000 10.000000 
Rope3_Seg03 0.000000 0.000000 0.000000 0.000000 0.000000 0.000000 10.000000 
Rope3_Seg04 0.000000 0.000000 0.000000 0.000000 0.000000 0.000000 10.000000 
Rope3_Seg05 0.000000 0.000000 0.000000 0.000000 0.000000 0.000000 10.000000 
Rope3_Seg06 0.000000 0.000000 0.000000 0.000000 0.000000 0.000000 10.000000 
Rope3_Seg07 0.000000 0.000000 0.000000 0.000000 0.000000 0.000000 10.000000 
Rope3_Seg08 0.000000 0.000000 0.000000 0.000000 0.000000 0.000000 10.000000 
Rope3_Seg09 0.000000 0.000000 0.000000 0.000000 0.000000 0.000000 10.000000 
R_rear_hand01 0.000000 0.000000 0.000000 0.000000 0.000000 0.000000 10.000000 
R_rear_hand02 0.000000 0.000000 0.000000 0.000000 0.000000 0.000000 10.000000 
R_rear_hand03 0.000000 0.000000 0.000000 0.000000 0.000000 0.000000 10.000000 
Rope4_Seg01 0.000000 0.000000 0.000000 0.000000 0.000000 0.000000 10.000000 
Rope4_Seg02 0.000000 0.000000 0.000000 0.000000 0.000000 0.000000 10.000000 
Rope4_Seg03 0.000000 0.000000 0.000000 0.000000 0.000000 0.000000 10.000000 
Rope4_Seg04 0.000000 0.000000 0.000000 0.000000 0.000000 0.000000 10.000000 
Rope4_Seg05 0.000000 0.000000 0.000000 0.000000 0.000000 0.000000 10.000000 
Rope4_Seg06 0.000000 0.000000 0.000000 0.000000 0.000000 0.000000 10.000000 
Rope4_Seg07 0.000000 0.000000 0.000000 0.000000 0.000000 0.000000 10.000000 
Rope4_Seg08 0.000000 0.000000 0.000000 0.000000 0.000000 0.000000 10.000000 
Rope4_Seg09 0.000000 0.000000 0.000000 0.000000 0.000000 0.000000 10.000000 
L_rear_hand01 0.000000 0.000000 0.000000 0.000000 0.000000 0.000000 10.000000 
L_rear_hand02 0.000000 0.000000 0.000000 0.000000 0.000000 0.000000 10.000000 
L_rear_hand03 0.000000 0.000000 0.000000 0.000000 0.000000 0.000000 10.000000 
#Beginning of Data. Separated by tabs
#Fr	Tx	Ty	Tz	Rx	Ry	Rz	SF
[MASTER]
32 0.000000 0.000000 0.000000 0.001660 0.001660 0.001660 0.000000
33 0.000000 0.000000 0.000000 0.001660 0.001660 0.001660 0.000000
[root]
32 -23.739870 -30.200193 1083.204224 -89.471336 -41.226536 -89.883545 1083.885254
33 -22.784966 -38.214760 1072.861206 -89.389275 -42.451664 -90.098656 1073.783325
[chest]
32 -84.512650 -34.090519 0.000000 1.902753 -1.900253 -130.389954 91.129311
33 -84.512650 -34.090519 0.000000 1.963876 -1.959969 -129.353226 91.129311
[L_mid_tent01]
32 27.299500 22.177483 -249.917984 -13.408771 -9.062776 53.823631 252.380859
33 27.299500 22.177483 -249.917984 -13.885353 -9.882710 55.884979 252.380859
[R_mid_tent01]
32 23.228794 24.509907 226.238495 -171.431168 2.205893 55.868122 228.744751
33 23.228794 24.509907 226.238495 -171.251450 3.309286 57.515030 228.744751
[spine01]
32 -0.361383 -0.195265 0.000000 0.001918 0.001354 19.575321 0.410763
33 -0.361383 -0.195265 0.000000 0.001920 0.001352 19.705696 0.410763
[Bip01_Neck]
32 165.484543 71.581718 0.000119 175.896118 1.177290 24.871183 180.302734
33 165.484543 71.581718 0.000119 175.896118 1.177290 24.871183 180.302734
[L_humerus]
32 -13.983130 -135.272980 -120.471481 -84.659637 -4.359030 -78.564987 181.680161
33 -13.983130 -135.272980 -120.471481 -85.067345 -2.939914 -92.197426 181.680161
[R_humerus]
32 -13.983309 -135.273102 125.287651 91.418007 -1.587479 -71.086365 184.909012
33 -13.983309 -135.273102 125.287651 93.472816 -2.546289 -87.462982 184.909012
[weapon_bone]
32 235.964890 -300.705902 0.000000 0.000000 -89.951546 -128.212341 382.234833
33 235.964890 -300.705902 0.000000 0.000000 -89.951546 -128.212341 382.234833
[Bip01_Head]
32 102.819786 23.735546 5.410304 3.150732 3.423702 -20.839094 105.662460
33 102.819786 23.735538 5.410309 3.150732 3.423702 -20.839094 105.662460
[eye_left_bone]
32 -24.626970 125.451866 -64.772606 0.000000 -90.000000 -99.840431 143.318359
33 -24.626970 125.451866 -64.772606 0.000000 -90.000000 -99.840431 143.318359
[eye_right_bone]
32 -24.626970 125.451866 64.327362 0.000000 -89.960434 80.159386 143.117676
33 -24.626970 125.451866 64.327362 0.000000 -89.960434 80.159386 143.117676
[L_forearm]
32 322.776093 0.000000 -0.000119 0.000169 0.002341 -81.731491 322.776093
33 322.776093 0.000000 -0.000119 0.000161 0.002342 -82.150803 322.776093
[L_front_hand]
32 241.149185 -0.042021 -3.300071 -177.736862 0.195216 -86.361015 241.171753
33 241.149185 -0.042021 -3.300071 -177.735840 0.126481 -84.651131 241.171753
[L_weapon_bone]
32 156.183838 0.000000 0.000000 0.002094 0.001061 36.272644 156.183838
33 156.183838 0.000000 0.000000 0.002102 0.001044 37.163715 156.183838
[L_front_hand01_01]
32 86.095154 20.947098 -0.655860 0.405585 -0.442306 -4.620490 88.609184
33 86.095154 20.947098 -0.655860 0.405585 -0.442306 -4.620490 88.609184
[L_front_hand02_01]
32 86.935165 -11.437475 24.513514 116.959450 3.630817 1.495453 91.046425
33 86.935165 -11.437475 24.513514 116.959450 3.630817 1.495453 91.046425
[L_front_hand03_01]
32 86.637497 -14.123976 -20.424902 -118.420097 -4.656303 -0.152527 90.126129
33 86.637497 -14.123976 -20.424902 -118.420097 -4.656303 -0.152527 90.126129
[L_front_hand01_02]
32 71.020905 -0.000179 0.000030 0.001534 0.001777 -8.378851 71.020905
33 71.020905 -0.000179 0.000030 0.001534 0.001777 -8.378848 71.020905
[L_front_hand02_02]
32 71.020927 -0.000119 0.000060 0.001534 0.001777 -8.378851 71.020927
33 71.020927 -0.000119 0.000060 0.001534 0.001777 -8.378848 71.020927
[L_front_hand03_02]
32 71.020905 -0.000060 0.000060 0.001534 0.001777 -8.378851 71.020905
33 71.020905 -0.000060 0.000060 0.001534 0.001777 -8.378848 71.020905
[R_forearm]
32 322.776428 -0.000060 0.000030 0.209356 -0.018278 -86.371086 322.776428
33 322.776428 -0.000060 0.000030 0.213063 -0.013375 -87.187775 322.776428
[R_front_hand]
32 238.847015 -0.006795 2.210259 -1.701062 -0.299522 -88.784889 238.857239
33 238.847015 -0.006795 2.210259 -1.701322 -0.299859 -88.789688 238.857239
[R_weapon_bone]
32 155.664093 0.002503 -0.000030 0.003002 0.002129 -124.302216 155.664078
33 155.664093 0.002503 -0.000030 0.002950 0.002201 -127.070381 155.664078
[R_front_hand01_01]
32 87.624611 14.231146 22.918642 -116.960213 3.496675 -1.324139 91.683487
33 87.624611 14.231146 22.918642 -116.960213 3.496675 -1.324139 91.683487
[R_front_hand02_01]
32 89.356956 14.367283 -19.491137 118.419647 -4.257089 0.609827 92.579636
33 89.356956 14.367283 -19.491137 118.419647 -4.257089 0.609827 92.579636
[R_front_hand03_01]
32 87.286232 -22.307278 -0.143439 -0.387970 -0.231462 4.232001 90.091743
33 87.286232 -22.307278 -0.143439 -0.387970 -0.231462 4.232001 90.091743
[R_front_hand01_02]
32 71.020905 0.000060 0.000119 0.001777 0.001534 8.377220 71.020905
33 71.020905 0.000060 0.000119 0.001777 0.001534 8.377220 71.020905
[R_front_hand02_02]
32 71.020844 -0.000030 -0.000119 0.001777 0.001534 8.377220 71.020836
33 71.020844 -0.000030 -0.000119 0.001777 0.001534 8.377220 71.020836
[R_front_hand03_02]
32 71.020905 0.000000 0.000030 0.001777 0.001534 8.377220 71.020905
33 71.020905 0.000000 0.000030 0.001777 0.001534 8.377220 71.020905
[null_rope01_connect]
32 328.732483 0.000000 -0.000238 131.846069 -73.797531 -53.295158 328.732483
33 328.732483 0.000000 -0.000238 130.017059 -73.072258 -52.159092 328.732483
[Rope1_Seg01]
32 0.000000 0.000000 0.000000 124.659874 22.074493 -172.201981 0.000000
33 0.000000 0.000000 0.000000 125.028511 22.868704 -173.867020 0.000000
[Rope1_Seg02]
32 139.999863 -0.000179 0.000000 3.177266 -6.791054 1.433857 139.999863
33 139.999863 -0.000179 0.000000 2.690182 -6.676765 1.906289 139.999863
[Rope1_Seg03]
32 139.999924 0.000060 -0.000060 3.998196 -14.491047 4.003907 139.999924
33 139.999924 0.000060 -0.000060 3.212184 -14.493714 5.011483 139.999924
[Rope1_Seg04]
32 139.999924 -0.000060 -0.000119 2.248442 -42.061909 4.305975 139.999924
33 139.999924 -0.000060 -0.000119 -0.463577 -43.133068 6.884230 139.999924
[Rope1_Seg05]
32 139.999832 0.000119 -0.000060 -8.921291 -26.548817 27.690430 139.999832
33 139.999832 0.000119 -0.000060 -6.685629 -24.848757 32.754742 139.999832
[Rope1_Seg06]
32 139.999954 0.000119 -0.000060 86.700661 -8.617921 53.042130 139.999954
33 139.999954 0.000119 -0.000060 95.608719 -5.250383 51.905071 139.999954
[Rope1_Seg07]
32 139.999985 0.000060 0.000000 23.394560 13.921026 5.278200 139.999985
33 139.999985 0.000060 0.000000 16.053747 12.889218 2.269129 139.999985
[Rope1_Seg09]
32 121.602913 0.000119 -0.000089 -89.793175 -1.359789 0.847147 121.602913
33 121.602913 0.000119 -0.000089 -89.793175 -1.359789 0.847147 121.602913
[L_mid_hand01]
32 103.859421 1.038730 8.195221 104.644196 -11.272186 -3.454247 104.187431
33 103.859421 1.038730 8.195221 104.594261 -10.259208 -3.183802 104.187431
[L_mid_hand02]
32 105.572853 -4.139662 -10.864139 -136.836349 12.208846 -12.107870 106.211075
33 105.572853 -4.139662 -10.864139 -136.679077 11.497956 -11.341941 106.211075
[L_mid_hand03]
32 104.641464 17.579376 -3.913581 -18.443985 3.510219 14.306661 106.179977
33 104.641464 17.579376 -3.913581 -18.501394 3.178196 13.312501 106.179977
[null_rope02_connect]
32 328.732849 0.000179 -0.000119 154.844513 81.009811 -100.630219 328.732849
33 328.732849 0.000179 -0.000119 147.454605 80.453957 -107.691391 328.732849
[Rope2_Seg01]
32 0.000095 0.000153 0.000047 -60.593292 19.819084 -3.746179 0.000186
33 0.000095 0.000153 0.000049 -61.393921 20.693560 -2.301703 0.000186
[Rope2_Seg02]
32 139.999741 -0.000060 -0.000119 -4.124186 -3.482701 5.337530 139.999756
33 139.999741 -0.000060 -0.000119 -3.404203 -3.755409 4.916712 139.999756
[Rope2_Seg03]
32 140.000107 0.000030 0.000000 -5.980052 -7.964478 10.628695 140.000107
33 140.000107 0.000030 0.000000 -5.058991 -8.379993 9.864146 140.000107
[Rope2_Seg04]
32 139.999802 0.000000 -0.000060 -14.474134 -15.105516 38.199352 139.999802
33 139.999802 0.000000 -0.000060 -13.735535 -16.980761 37.708431 139.999802
[Rope2_Seg05]
32 139.999985 -0.000060 0.000119 -7.024111 -42.304806 5.952239 139.999985
33 139.999985 -0.000060 0.000119 -8.406754 -44.956158 2.648572 139.999985
[Rope2_Seg06]
32 139.999893 -0.000030 -0.000119 -33.559891 -37.521297 -34.271790 139.999893
33 139.999893 -0.000030 -0.000119 -34.617290 -33.838707 -34.230965 139.999893
[Rope2_Seg07]
32 139.999893 0.000060 -0.000060 -9.683323 -3.844031 -10.021263 139.999893
33 139.999893 0.000060 -0.000060 -8.923284 -3.064303 -9.726475 139.999893
[Rope2_Seg09]
32 121.338966 0.000089 -0.000060 33.793236 -1.359788 -0.847141 121.338966
33 121.338966 0.000089 -0.000060 33.793236 -1.359788 -0.847141 121.338966
[R_mid_hand01]
32 104.680779 11.144459 -10.335981 -46.414547 11.258627 13.253880 105.778534
33 104.680779 11.144459 -10.335981 -46.542236 10.545012 12.569454 105.778534
[R_mid_hand02]
32 104.070427 2.443552 8.231699 75.237465 -13.239053 3.986312 104.424065
33 104.070427 2.443552 8.231699 75.294159 -12.281064 3.728035 104.424065
[R_mid_hand03]
32 106.028137 -11.221827 -5.996406 -165.147003 5.488747 -17.115530 106.788818
33 106.028137 -11.221827 -5.996406 -165.054932 5.234298 -16.153889 106.788818
[spine02]
32 129.756927 0.001550 0.000119 -1.590191 -3.801295 14.947948 129.756927
33 129.756927 0.001550 0.000119 -1.648607 -3.784973 15.823559 129.756927
[spine03]
32 78.924904 0.033167 -1.861542 -0.136224 5.002367 -10.638161 78.946861
33 78.934937 0.031421 -1.763567 0.669410 5.196082 -1.542384 78.954643
[pelvis]
32 169.435242 0.051022 0.000000 -4.433553 -2.078831 7.910296 169.435257
33 169.435242 0.051022 0.000000 -4.581494 -2.126971 8.229468 169.435257
[null_rope03_connect]
32 -1.257226 -2.466202 137.391083 173.647842 -84.994728 -74.085663 137.418976
33 -1.257226 -2.466202 137.391083 169.036789 -85.103104 -78.627159 137.418976
[null_rope04_connect]
32 -1.259640 -2.480268 -137.844437 173.647842 -84.994728 -74.085663 137.872513
33 -1.259640 -2.480268 -137.844437 169.036789 -85.103104 -78.627159 137.872513
[Rope3_Seg01]
32 0.000000 0.000000 0.000000 -139.551270 39.676228 -86.492340 0.000000
33 0.000000 0.000000 0.000000 -139.926651 42.341270 -85.823288 0.000000
[Rope3_Seg02]
32 139.999924 -0.000119 0.000060 -8.205504 -18.589417 11.856750 139.999924
33 139.999924 -0.000119 0.000060 -9.343920 -18.001169 14.544440 139.999924
[Rope3_Seg03]
32 139.999924 -0.000119 0.000119 -59.596489 -65.383560 75.647675 139.999924
33 139.999924 -0.000119 0.000119 -53.313477 -57.740971 65.823792 139.999924
[Rope3_Seg04]
32 139.999924 0.000119 0.000000 2.470388 -28.338682 11.794935 139.999924
33 139.999924 0.000119 0.000000 -1.103295 -30.879822 11.226524 139.999924
[Rope3_Seg05]
32 139.999924 -0.000238 0.000060 3.191844 -26.178288 16.919447 139.999924
33 139.999924 -0.000238 0.000060 1.793807 -36.731705 17.783104 139.999924
[Rope3_Seg06]
32 139.999893 -0.000119 -0.000060 2.537464 -11.694490 8.821581 139.999893
33 139.999893 -0.000119 -0.000060 3.329341 -14.573607 8.413401 139.999893
[Rope3_Seg07]
32 139.999771 0.000060 -0.000119 1.670790 -5.769503 4.841754 139.999771
33 139.999771 0.000060 -0.000119 2.125761 -6.402500 4.298097 139.999771
[Rope3_Seg08]
32 139.999985 -0.000060 0.000000 1.099668 -2.653115 2.370835 139.999985
33 139.999985 -0.000060 0.000000 1.220183 -2.446307 1.786320 139.999985
[Rope3_Seg09]
32 90.185997 -0.000179 -0.000060 89.793228 -1.359877 -0.847183 90.185997
33 90.185997 -0.000179 -0.000060 89.793228 -1.359877 -0.847183 90.185997
[R_rear_hand01]
32 103.366196 -6.073594 -10.757982 -157.419449 10.199166 -12.464790 104.101845
33 103.366196 -6.073594 -10.757982 -157.271347 9.848491 -11.613628 104.101845
[R_rear_hand02]
32 100.509819 12.039542 -7.992327 -37.961464 8.432366 13.663831 101.543350
33 100.509819 12.039542 -7.992327 -38.066399 7.870775 12.938637 101.543350
[R_rear_hand03]
32 101.539970 5.215704 5.435467 84.167763 -12.731236 5.154160 101.819031
33 101.539970 5.215704 5.435467 84.187134 -11.826192 5.059241 101.819031
[Rope4_Seg01]
32 0.000000 0.000000 0.000000 72.493431 54.236450 -78.611389 0.000000
33 0.000000 0.000000 0.000000 74.857391 56.417816 -77.164528 0.000000
[Rope4_Seg02]
32 139.999985 0.000060 0.000119 2.639992 1.037234 -5.601668 139.999985
33 139.999985 0.000060 0.000119 2.940628 1.599995 -5.907193 139.999985
[Rope4_Seg03]
32 139.999924 0.000000 -0.000238 8.899234 4.165744 -52.854309 139.999924
33 139.999924 0.000000 -0.000238 9.993032 7.274874 -44.283665 139.999924
[Rope4_Seg04]
32 139.999985 0.000000 0.000119 -22.801394 -3.275605 -80.171104 139.999985
33 139.999985 0.000000 0.000119 -14.044603 -1.424405 -80.274925 139.999985
[Rope4_Seg05]
32 139.999802 -0.000060 -0.000119 -10.543221 12.564891 -14.160895 139.999802
33 139.999802 -0.000060 -0.000119 -15.573846 11.930429 -24.971418 139.999802
[Rope4_Seg06]
32 139.999924 0.000000 0.000060 -3.348750 5.948869 -5.778124 139.999924
33 139.999924 0.000000 0.000060 -5.491022 7.571260 -9.955091 139.999924
[Rope4_Seg07]
32 139.999802 0.000000 0.000000 -1.423871 3.255513 -2.963423 139.999802
33 139.999802 0.000000 0.000000 -2.054269 3.858380 -4.428913 139.999802
[Rope4_Seg08]
32 139.999924 0.000000 0.000119 -2.225165 1.831021 -1.587387 139.999924
33 139.999924 0.000000 0.000119 -2.478694 2.095594 -2.245529 139.999924
[Rope4_Seg09]
32 90.185791 0.000060 0.000060 -135.617828 2.228885 0.850567 90.185791
33 90.185791 0.000060 0.000060 -135.617828 2.228885 0.850567 90.185791
[L_rear_hand01]
32 101.696655 -8.392275 -7.654577 -38.227806 -6.873948 168.339188 102.329041
33 101.696655 -8.392275 -7.654577 -38.317154 -6.254532 169.127747 102.329041
[L_rear_hand02]
32 102.726799 -1.568258 5.773216 84.221146 10.222666 175.109299 102.900848
33 102.726799 -1.568258 5.773216 84.237915 9.232031 175.210098 102.900848
[L_rear_hand03]
32 104.552910 9.721220 -10.420293 -157.022369 -9.220066 -169.894562 105.519653
33 104.552910 9.721220 -10.420293 -156.878143 -8.830713 -170.824295 105.519653
